<mxfile host="app.diagrams.net" modified="2023-01-28T06:00:31.643Z" agent="5.0 (Macintosh; Intel Mac OS X 10_15_7) AppleWebKit/537.36 (KHTML, like Gecko) Chrome/109.0.0.0 Safari/537.36" etag="a-lwdNDf4w40_fDWUkyI" version="20.8.13" type="github">
  <diagram name="第 1 页" id="JglvXAm2kmOWLRLsfkI9">
    <mxGraphModel dx="1434" dy="742" grid="1" gridSize="10" guides="1" tooltips="1" connect="1" arrows="1" fold="1" page="1" pageScale="1" pageWidth="827" pageHeight="1169" math="0" shadow="0">
      <root>
        <mxCell id="0" />
        <mxCell id="1" parent="0" />
        <mxCell id="xKY7nRnzKIO3sX-Rf7oE-12" style="edgeStyle=orthogonalEdgeStyle;rounded=0;orthogonalLoop=1;jettySize=auto;html=1;exitX=1;exitY=0.5;exitDx=0;exitDy=0;exitPerimeter=0;entryX=0;entryY=0.5;entryDx=0;entryDy=0;" edge="1" parent="1" source="xKY7nRnzKIO3sX-Rf7oE-2" target="xKY7nRnzKIO3sX-Rf7oE-5">
          <mxGeometry relative="1" as="geometry" />
        </mxCell>
        <mxCell id="xKY7nRnzKIO3sX-Rf7oE-16" value="Download web pages" style="edgeLabel;html=1;align=center;verticalAlign=middle;resizable=0;points=[];" vertex="1" connectable="0" parent="xKY7nRnzKIO3sX-Rf7oE-12">
          <mxGeometry x="-0.3784" relative="1" as="geometry">
            <mxPoint x="23" as="offset" />
          </mxGeometry>
        </mxCell>
        <mxCell id="xKY7nRnzKIO3sX-Rf7oE-15" style="edgeStyle=orthogonalEdgeStyle;rounded=0;orthogonalLoop=1;jettySize=auto;html=1;exitX=0.95;exitY=0.91;exitDx=0;exitDy=0;exitPerimeter=0;entryX=0;entryY=0.75;entryDx=0;entryDy=0;" edge="1" parent="1" source="xKY7nRnzKIO3sX-Rf7oE-2" target="xKY7nRnzKIO3sX-Rf7oE-5">
          <mxGeometry relative="1" as="geometry" />
        </mxCell>
        <mxCell id="xKY7nRnzKIO3sX-Rf7oE-17" value="Send restful api requests" style="edgeLabel;html=1;align=center;verticalAlign=middle;resizable=0;points=[];" vertex="1" connectable="0" parent="xKY7nRnzKIO3sX-Rf7oE-15">
          <mxGeometry x="-0.4269" relative="1" as="geometry">
            <mxPoint x="36" y="4" as="offset" />
          </mxGeometry>
        </mxCell>
        <mxCell id="xKY7nRnzKIO3sX-Rf7oE-2" value="Web Browser" style="shape=mxgraph.cisco.computers_and_peripherals.web_browser;html=1;pointerEvents=1;dashed=0;fillColor=#036897;strokeColor=#ffffff;strokeWidth=2;verticalLabelPosition=bottom;verticalAlign=top;align=center;outlineConnect=0;" vertex="1" parent="1">
          <mxGeometry x="20" y="138" width="62" height="64" as="geometry" />
        </mxCell>
        <mxCell id="xKY7nRnzKIO3sX-Rf7oE-4" value="" style="rounded=1;arcSize=10;dashed=1;fillColor=none;gradientColor=none;dashPattern=1 1;strokeWidth=2;" vertex="1" parent="1">
          <mxGeometry x="250" y="50" width="330" height="250" as="geometry" />
        </mxCell>
        <mxCell id="xKY7nRnzKIO3sX-Rf7oE-13" style="edgeStyle=orthogonalEdgeStyle;rounded=0;orthogonalLoop=1;jettySize=auto;html=1;exitX=0.5;exitY=0;exitDx=0;exitDy=0;" edge="1" parent="1" source="xKY7nRnzKIO3sX-Rf7oE-5" target="xKY7nRnzKIO3sX-Rf7oE-7">
          <mxGeometry relative="1" as="geometry" />
        </mxCell>
        <mxCell id="xKY7nRnzKIO3sX-Rf7oE-18" value="Read web pages" style="edgeLabel;html=1;align=center;verticalAlign=middle;resizable=0;points=[];" vertex="1" connectable="0" parent="xKY7nRnzKIO3sX-Rf7oE-13">
          <mxGeometry x="0.1613" y="2" relative="1" as="geometry">
            <mxPoint x="-22" as="offset" />
          </mxGeometry>
        </mxCell>
        <mxCell id="xKY7nRnzKIO3sX-Rf7oE-14" style="edgeStyle=orthogonalEdgeStyle;rounded=0;orthogonalLoop=1;jettySize=auto;html=1;exitX=0.5;exitY=1;exitDx=0;exitDy=0;" edge="1" parent="1" source="xKY7nRnzKIO3sX-Rf7oE-5" target="xKY7nRnzKIO3sX-Rf7oE-8">
          <mxGeometry relative="1" as="geometry" />
        </mxCell>
        <mxCell id="xKY7nRnzKIO3sX-Rf7oE-19" value="Dispatch restful api requests" style="edgeLabel;html=1;align=center;verticalAlign=middle;resizable=0;points=[];" vertex="1" connectable="0" parent="xKY7nRnzKIO3sX-Rf7oE-14">
          <mxGeometry x="-0.0161" y="1" relative="1" as="geometry">
            <mxPoint x="-31" y="1" as="offset" />
          </mxGeometry>
        </mxCell>
        <mxCell id="xKY7nRnzKIO3sX-Rf7oE-5" value="Nginx" style="rounded=0;whiteSpace=wrap;html=1;" vertex="1" parent="1">
          <mxGeometry x="260" y="140" width="120" height="60" as="geometry" />
        </mxCell>
        <mxCell id="xKY7nRnzKIO3sX-Rf7oE-7" value="Static Web Pages" style="rounded=0;whiteSpace=wrap;html=1;" vertex="1" parent="1">
          <mxGeometry x="414" y="80" width="120" height="60" as="geometry" />
        </mxCell>
        <mxCell id="xKY7nRnzKIO3sX-Rf7oE-11" style="edgeStyle=orthogonalEdgeStyle;rounded=0;orthogonalLoop=1;jettySize=auto;html=1;exitX=1;exitY=0.5;exitDx=0;exitDy=0;" edge="1" parent="1" source="xKY7nRnzKIO3sX-Rf7oE-8" target="xKY7nRnzKIO3sX-Rf7oE-10">
          <mxGeometry relative="1" as="geometry">
            <Array as="points">
              <mxPoint x="640" y="230" />
              <mxPoint x="640" y="120" />
            </Array>
          </mxGeometry>
        </mxCell>
        <mxCell id="xKY7nRnzKIO3sX-Rf7oE-20" value="Read/write data" style="edgeLabel;html=1;align=center;verticalAlign=middle;resizable=0;points=[];" vertex="1" connectable="0" parent="xKY7nRnzKIO3sX-Rf7oE-11">
          <mxGeometry x="0.4516" relative="1" as="geometry">
            <mxPoint x="-9" y="12" as="offset" />
          </mxGeometry>
        </mxCell>
        <mxCell id="xKY7nRnzKIO3sX-Rf7oE-22" style="edgeStyle=orthogonalEdgeStyle;rounded=0;orthogonalLoop=1;jettySize=auto;html=1;exitX=1;exitY=0.75;exitDx=0;exitDy=0;" edge="1" parent="1" source="xKY7nRnzKIO3sX-Rf7oE-8" target="xKY7nRnzKIO3sX-Rf7oE-21">
          <mxGeometry relative="1" as="geometry" />
        </mxCell>
        <mxCell id="xKY7nRnzKIO3sX-Rf7oE-23" value="Upload event.json" style="edgeLabel;html=1;align=center;verticalAlign=middle;resizable=0;points=[];" vertex="1" connectable="0" parent="xKY7nRnzKIO3sX-Rf7oE-22">
          <mxGeometry x="-0.005" y="1" relative="1" as="geometry">
            <mxPoint as="offset" />
          </mxGeometry>
        </mxCell>
        <mxCell id="xKY7nRnzKIO3sX-Rf7oE-30" style="edgeStyle=orthogonalEdgeStyle;rounded=0;orthogonalLoop=1;jettySize=auto;html=1;" edge="1" parent="1" source="xKY7nRnzKIO3sX-Rf7oE-21" target="xKY7nRnzKIO3sX-Rf7oE-26">
          <mxGeometry relative="1" as="geometry">
            <Array as="points">
              <mxPoint x="730" y="370" />
            </Array>
          </mxGeometry>
        </mxCell>
        <mxCell id="xKY7nRnzKIO3sX-Rf7oE-31" value="Download event.json" style="edgeLabel;html=1;align=center;verticalAlign=middle;resizable=0;points=[];" vertex="1" connectable="0" parent="xKY7nRnzKIO3sX-Rf7oE-30">
          <mxGeometry x="0.1529" relative="1" as="geometry">
            <mxPoint as="offset" />
          </mxGeometry>
        </mxCell>
        <mxCell id="xKY7nRnzKIO3sX-Rf7oE-8" value="CRM &lt;br&gt;Backend Server" style="rounded=0;whiteSpace=wrap;html=1;" vertex="1" parent="1">
          <mxGeometry x="414" y="200" width="120" height="60" as="geometry" />
        </mxCell>
        <mxCell id="xKY7nRnzKIO3sX-Rf7oE-10" value="Amazon RDS" style="sketch=0;outlineConnect=0;fontColor=#232F3E;gradientColor=none;strokeColor=#ffffff;fillColor=#232F3E;dashed=0;verticalLabelPosition=middle;verticalAlign=bottom;align=center;html=1;whiteSpace=wrap;fontSize=10;fontStyle=1;spacing=3;shape=mxgraph.aws4.productIcon;prIcon=mxgraph.aws4.rds;" vertex="1" parent="1">
          <mxGeometry x="690" y="70" width="80" height="100" as="geometry" />
        </mxCell>
        <mxCell id="xKY7nRnzKIO3sX-Rf7oE-21" value="Amazon S3" style="sketch=0;outlineConnect=0;fontColor=#232F3E;gradientColor=none;strokeColor=#ffffff;fillColor=#232F3E;dashed=0;verticalLabelPosition=middle;verticalAlign=bottom;align=center;html=1;whiteSpace=wrap;fontSize=10;fontStyle=1;spacing=3;shape=mxgraph.aws4.productIcon;prIcon=mxgraph.aws4.s3;" vertex="1" parent="1">
          <mxGeometry x="690" y="230" width="80" height="100" as="geometry" />
        </mxCell>
        <mxCell id="xKY7nRnzKIO3sX-Rf7oE-26" value="Mobile client" style="sketch=0;outlineConnect=0;fontColor=#232F3E;gradientColor=none;strokeColor=#232F3E;fillColor=#ffffff;dashed=0;verticalLabelPosition=bottom;verticalAlign=top;align=center;html=1;fontSize=12;fontStyle=0;aspect=fixed;shape=mxgraph.aws4.resourceIcon;resIcon=mxgraph.aws4.mobile_client;" vertex="1" parent="1">
          <mxGeometry x="30" y="340" width="60" height="60" as="geometry" />
        </mxCell>
      </root>
    </mxGraphModel>
  </diagram>
</mxfile>
